REM DIRINDEX 1\2,1\3,1\4
REM DIRNAME folder01,folder02,folder03,folder04
TITLE ""
FILE "CD1-04.mp3" MP3
  TRACK 01 AUDIO
    TITLE "2:cjc031_0004"
    INDEX 01 00:00:00
  TRACK 02 AUDIO
    TITLE "3:cjc031_0005"
    INDEX 01 00:01:07
  TRACK 03 AUDIO
    TITLE "2:cjc031_0006"
    INDEX 01 00:02:47
  TRACK 04 AUDIO
    TITLE "3:cjc031_0007"
    INDEX 01 00:03:68
  TRACK 05 AUDIO
    TITLE "2:cjc031_0008"
    INDEX 01 00:05:22
  TRACK 06 AUDIO
    TITLE "3:cjc031_0009"
    INDEX 01 00:06:33
  TRACK 07 AUDIO
    TITLE "2:cjc031_0010"
    INDEX 01 00:07:41
  TRACK 08 AUDIO
    TITLE "3:cjc031_0011"
    INDEX 01 00:08:62
  TRACK 09 AUDIO
    TITLE "2:cjc031_0012"
    INDEX 01 00:10:18
  TRACK 10 AUDIO
    TITLE "3:cjc031_0013"
    INDEX 01 00:11:31
  TRACK 11 AUDIO
    TITLE "2:cjc031_0014"
    INDEX 01 00:12:63
  TRACK 12 AUDIO
    TITLE "3:cjc031_0015"
    INDEX 01 00:14:06
  TRACK 13 AUDIO
    TITLE "2:cjc031_0016"
    INDEX 01 00:15:42
  TRACK 14 AUDIO
    TITLE "3:cjc031_0017"
    INDEX 01 00:16:67
  TRACK 15 AUDIO
    TITLE "2:cjc031_0018"
    INDEX 01 00:18:46
  TRACK 16 AUDIO
    TITLE "3:cjc031_0019"
    INDEX 01 00:19:71
  TRACK 17 AUDIO
    TITLE "2:cjc031_0020"
    INDEX 01 00:21:41
  TRACK 18 AUDIO
    TITLE "3:cjc031_0021"
    INDEX 01 00:22:58
  TRACK 19 AUDIO
    TITLE "2:cjc031_0022"
    INDEX 01 00:24:33
  TRACK 20 AUDIO
    TITLE "3:cjc031_0023"
    INDEX 01 00:25:64
  TRACK 21 AUDIO
    TITLE "2:cjc031_0024"
    INDEX 01 00:27:26
  TRACK 22 AUDIO
    TITLE "3:cjc031_0025"
    INDEX 01 00:28:45
  TRACK 23 AUDIO
    TITLE "2:cjc031_0026"
    INDEX 01 00:30:10
  TRACK 24 AUDIO
    TITLE "3:cjc031_0027"
    INDEX 01 00:31:33
  TRACK 25 AUDIO
    TITLE "2:cjc031_0028"
    INDEX 01 00:33:17
  TRACK 26 AUDIO
    TITLE "3:cjc031_0029"
    INDEX 01 00:34:57
  TRACK 27 AUDIO
    TITLE "2:cjc031_0030"
    INDEX 01 00:36:44
  TRACK 28 AUDIO
    TITLE "3:cjc031_0031"
    INDEX 01 00:38:10
  TRACK 29 AUDIO
    TITLE "2:cjc031_0032"
    INDEX 01 00:39:56
  TRACK 30 AUDIO
    TITLE "3:cjc031_0033"
    INDEX 01 00:41:10
  TRACK 31 AUDIO
    TITLE "2:cjc031_0034"
    INDEX 01 00:42:41
  TRACK 32 AUDIO
    TITLE "3:cjc031_0035"
    INDEX 01 00:43:60
  TRACK 33 AUDIO
    TITLE "2:cjc031_0036"
    INDEX 01 00:45:14
  TRACK 34 AUDIO
    TITLE "3:cjc031_0037"
    INDEX 01 00:46:45
  TRACK 35 AUDIO
    TITLE "2:cjc031_0038"
    INDEX 01 00:48:67
  TRACK 36 AUDIO
    TITLE "3:cjc031_0039"
    INDEX 01 00:50:21
  TRACK 37 AUDIO
    TITLE "2:cjc031_0040"
    INDEX 01 00:51:62
  TRACK 38 AUDIO
    TITLE "3:cjc031_0041"
    INDEX 01 00:53:23
  TRACK 39 AUDIO
    TITLE "2:cjc031_0042"
    INDEX 01 00:54:74
  TRACK 40 AUDIO
    TITLE "3:cjc031_0043"
    INDEX 01 00:56:37
  TRACK 41 AUDIO
    TITLE "2:cjc031_0044"
    INDEX 01 00:58:15
  TRACK 42 AUDIO
    TITLE "3:cjc031_0045"
    INDEX 01 00:59:39
  TRACK 43 AUDIO
    TITLE "2:cjc031_0046"
    INDEX 01 01:01:38
  TRACK 44 AUDIO
    TITLE "3:cjc031_0047"
    INDEX 01 01:03:08
  TRACK 45 AUDIO
    TITLE "2:cjc031_0048"
    INDEX 01 01:04:54
  TRACK 46 AUDIO
    TITLE "3:cjc031_0049"
    INDEX 01 01:05:68
  TRACK 47 AUDIO
    TITLE "2:cjc031_0050"
    INDEX 01 01:07:23
  TRACK 48 AUDIO
    TITLE "3:cjc031_0051"
    INDEX 01 01:08:48
  TRACK 49 AUDIO
    TITLE "2:cjc031_0052"
    INDEX 01 01:10:02
  TRACK 50 AUDIO
    TITLE "3:cjc031_0053"
    INDEX 01 01:11:21
  TRACK 51 AUDIO
    TITLE "2:cjc031_0054"
    INDEX 01 01:13:02
  TRACK 52 AUDIO
    TITLE "3:cjc031_0055"
    INDEX 01 01:14:17
  TRACK 53 AUDIO
    TITLE "2:cjc031_0056"
    INDEX 01 01:16:03
  TRACK 54 AUDIO
    TITLE "3:cjc031_0057"
    INDEX 01 01:17:22
  TRACK 55 AUDIO
    TITLE "2:cjc031_0058"
    INDEX 01 01:18:62
  TRACK 56 AUDIO
    TITLE "3:cjc031_0059"
    INDEX 01 01:20:06
  TRACK 57 AUDIO
    TITLE "2:cjc031_0060"
    INDEX 01 01:21:65
  TRACK 58 AUDIO
    TITLE "3:cjc031_0061"
    INDEX 01 01:23:16
  TRACK 59 AUDIO
    TITLE "2:cjc031_0062"
    INDEX 01 01:24:41
  TRACK 60 AUDIO
    TITLE "3:cjc031_0063"
    INDEX 01 01:25:66
  TRACK 61 AUDIO
    TITLE "2:cjc031_0064"
    INDEX 01 01:27:46
  TRACK 62 AUDIO
    TITLE "3:cjc031_0065"
    INDEX 01 01:28:61
  TRACK 63 AUDIO
    TITLE "2:cjc031_0066"
    INDEX 01 01:30:07
  TRACK 64 AUDIO
    TITLE "3:cjc031_0067"
    INDEX 01 01:31:38
  TRACK 65 AUDIO
    TITLE "2:cjc031_0068"
    INDEX 01 01:33:17
  TRACK 66 AUDIO
    TITLE "3:cjc031_0069"
    INDEX 01 01:34:38
  TRACK 67 AUDIO
    TITLE "2:cjc031_0070"
    INDEX 01 01:35:73
  TRACK 68 AUDIO
    TITLE "3:cjc031_0071"
    INDEX 01 01:37:11
  TRACK 69 AUDIO
    TITLE "2:cjc031_0072"
    INDEX 01 01:38:55
  TRACK 70 AUDIO
    TITLE "3:cjc031_0073"
    INDEX 01 01:40:07
  TRACK 71 AUDIO
    TITLE "2:cjc031_0074"
    INDEX 01 01:41:56
  TRACK 72 AUDIO
    TITLE "3:cjc031_0075"
    INDEX 01 01:43:09
  TRACK 73 AUDIO
    TITLE "2:cjc031_0076"
    INDEX 01 01:44:58
  TRACK 74 AUDIO
    TITLE "3:cjc031_0077"
    INDEX 01 01:45:63
  TRACK 75 AUDIO
    TITLE "2:cjc031_0078"
    INDEX 01 01:47:42
  TRACK 76 AUDIO
    TITLE "3:cjc031_0079"
    INDEX 01 01:48:71
  TRACK 77 AUDIO
    TITLE "2:cjc031_0080"
    INDEX 01 01:50:47
  TRACK 78 AUDIO
    TITLE "3:cjc031_0081"
    INDEX 01 01:51:56
  TRACK 79 AUDIO
    TITLE "2:cjc031_0082"
    INDEX 01 01:53:16
  TRACK 80 AUDIO
    TITLE "3:cjc031_0083"
    INDEX 01 01:54:39
  TRACK 81 AUDIO
    TITLE "0:"
    INDEX 01 01:56:08
